<?xml version="1.0" encoding="utf-8"?>
<!-- Generator: Adobe Illustrator 22.1.0, SVG Export Plug-In . SVG Version: 6.00 Build 0)  -->
<svg version="1.1" id="Layer_1" xmlns="http://www.w3.org/2000/svg" xmlns:xlink="http://www.w3.org/1999/xlink" x="0px" y="0px"
	 viewBox="0 0 944 500" style="enable-background:new 0 0 944 500;" xml:space="preserve">
<style type="text/css">
	.st0{fill:#F21434;}
	.st1{fill:#28317D;}
	.st2{fill:#FFFFFF;}
	.st3{font-family:'HelveticaNeue-Bold';}
	.st4{font-size:97.017px;}
	.st5{font-family:'HelveticaNeue';}
	.st6{font-size:50px;}
</style>
<path class="st0" d="M472,0C333.9,0,222,111.9,222,250s111.9,250,250,250s250-111.9,250-250S610.1,0,472,0z M606.4,384.4
	C570.5,420.2,522.8,440,472,440s-98.5-19.8-134.4-55.6C301.8,348.5,282,300.8,282,250c0-50.8,19.8-98.5,55.6-134.4
	C373.5,79.8,421.2,60,472,60s98.5,19.8,134.4,55.6C642.2,151.5,662,199.2,662,250C662,300.8,642.2,348.5,606.4,384.4z"/>
<g>
	<path class="st1" d="M472,505c-1.5,0-3.1,0-4.7,0c-61.1-1.1-119.8-24.2-165.3-64.9c-45.2-40.4-74.5-95.6-82.6-155.3
		c-1.4-10,1.7-20.1,8.3-27.8c6.6-7.6,16.3-12,26.4-12c17.4,0,32.3,13.1,34.7,30.5c5.5,40.1,23.6,76.5,52.5,105.3
		C376.1,415.8,422.6,435,472,435c49.4,0,95.9-19.2,130.8-54.2C637.8,345.9,657,299.4,657,250c0-49.4-19.2-95.9-54.2-130.8
		c-28.8-28.8-65.2-47-105.3-52.5C480.1,64.3,467,49.4,467,32c0-19.3,15.7-35,35-35c1.6,0,3.2,0.1,4.8,0.3
		C566.5,5.5,621.6,34.8,662.1,80c40.7,45.5,63.8,104.2,64.9,165.3c1.2,68.8-24.8,133.8-73.2,183.2c-23.5,24-51,42.8-81.6,56
		C540.4,498.1,506.7,505,472,505C472,505,472,505,472,505z"/>
	<path class="st2" d="M502,2c1.4,0,2.7,0.1,4.1,0.3C626.5,18.7,719.7,120.9,722,245.4C724.5,385,611.1,500,472,500
		c-1.5,0-3.1,0-4.6,0c-124.4-2.3-226.7-95.4-243.1-215.9c-2.5-18,11.5-34.1,29.7-34.1c15.1,0,27.7,11.2,29.8,26.2
		c5.6,40.8,24.2,78.5,53.9,108.2C373.5,420.2,421.2,440,472,440c50.8,0,98.5-19.8,134.4-55.6C642.2,348.5,662,300.8,662,250
		s-19.8-98.5-55.6-134.4C576.7,86,539,67.4,498.2,61.8c-15-2-26.2-14.7-26.2-29.8v0C472,15.2,485.7,2,502,2 M502-8
		c-22,0-40,17.9-40,40c0,9.7,3.5,19.1,10,26.4c6.4,7.2,15.2,12,24.8,13.3c39,5.3,74.4,23,102.4,51c34,34,52.7,79.2,52.7,127.3
		s-18.7,93.3-52.7,127.3c-34,34-79.2,52.7-127.3,52.7s-93.3-18.7-127.3-52.7c-28-28-45.7-63.5-51-102.4c-1.3-9.6-6-18.4-13.3-24.8
		c-7.3-6.4-16.7-10-26.4-10c-11.6,0-22.5,5-30.1,13.7c-7.6,8.7-11.1,20.3-9.5,31.7c8.3,60.9,38.2,117.2,84.3,158.4
		c22.8,20.4,48.6,36.4,76.8,47.7c29.2,11.7,60,17.9,91.7,18.5c1.6,0,3.2,0,4.8,0c35.4,0,69.7-7.1,102.1-21
		c31.2-13.4,59.3-32.6,83.2-57.1c24-24.4,42.6-52.7,55.5-84.2c13.3-32.6,19.8-67.1,19.1-102.6c-0.6-31.7-6.8-62.5-18.5-91.7
		c-11.3-28.2-27.3-54.1-47.7-76.8c-41.2-46-97.5-76-158.4-84.3C505.6-7.9,503.8-8,502-8L502-8z"/>
</g>
<text transform="matrix(1 0 0 1 405.1533 276.8359)" class="st3 st4">3.5</text>
<text transform="matrix(1 0 0 1 423.1533 321.8359)" class="st5 st6">max</text>
</svg>
